<svg viewBox="0 0 33 18" fill="none" xmlns="http://www.w3.org/2000/svg">
<path d="M32.8633 9.61865C32.8521 9.33265 32.7344 9.00209 32.5383 8.79361L26.1383 1.9933C25.7046 1.60358 24.873 1.4427 24.3883 1.8933C23.9108 2.3371 23.925 3.19782 24.4007 3.64338L28.9007 8.41861L2.06328 8.41861C1.40056 8.41861 0.863281 8.95589 0.863281 9.61865C0.863281 10.2814 1.40056 10.8187 2.06328 10.8187L28.9007 10.8187L24.4007 15.5939C23.9912 16.0041 23.9155 16.8951 24.3883 17.344C24.8609 17.7928 25.7224 17.6494 26.1383 17.2439L32.5383 10.4437C32.7573 10.211 32.864 9.93793 32.8633 9.61865V9.61865Z" fill="#282828"/>
</svg>
