<svg viewBox="0 0 50 50" fill="none" xmlns="http://www.w3.org/2000/svg">
<circle cx="25" cy="25" r="25" fill="#272728"/>
<path d="M31.6389 12.7808L28.2432 12.7754C24.4282 12.7754 21.9628 15.3048 21.9628 19.2197V22.191H18.5486C18.2536 22.191 18.0146 22.4302 18.0146 22.7252V27.0302C18.0146 27.3253 18.2538 27.5642 18.5486 27.5642H21.9628V38.4272C21.9628 38.7222 22.2017 38.9611 22.4968 38.9611H26.9513C27.2464 38.9611 27.4853 38.7219 27.4853 38.4272V27.5642H31.4773C31.7723 27.5642 32.0113 27.3253 32.0113 27.0302L32.0129 22.7252C32.0129 22.5836 31.9565 22.4479 31.8565 22.3476C31.7565 22.2474 31.6203 22.191 31.4787 22.191H27.4853V19.6722C27.4853 18.4616 27.7738 17.847 29.3508 17.847L31.6383 17.8462C31.9331 17.8462 32.172 17.607 32.172 17.3123V13.3148C32.172 13.0203 31.9333 12.7814 31.6389 12.7808Z" fill="white"/>
</svg>
