<svg viewBox="0 0 50 50" fill="none" xmlns="http://www.w3.org/2000/svg">
<circle cx="25" cy="25" r="25" fill="#272728"/>
<path fill-rule="evenodd" clip-rule="evenodd" d="M38.3565 19.7744C38.4096 19.8806 38.4413 20.0086 38.4413 20.1335C38.4413 21.42 37.8274 22.5966 36.8355 23.3429V34.5859C36.8355 35.9141 35.7549 36.9946 34.4267 36.9946H15.0497C13.7215 36.9946 12.641 35.9141 12.641 34.5859V23.3429C11.676 22.6169 11.0483 21.4665 11.0361 20.1715C11.0359 20.1659 11.0352 20.139 11.0352 20.1335C11.0352 20.0137 11.0642 19.8858 11.1199 19.7744L13.8877 14.2387C14.2984 13.4175 15.124 12.9072 16.0422 12.9072H33.4343C34.3525 12.9072 35.178 13.4175 35.5887 14.2387L38.3565 19.7744ZM32.1561 20.9364C32.4875 21.8708 33.38 22.5422 34.4267 22.5422C35.4734 22.5422 36.3659 21.8708 36.6974 20.9364H32.1561ZM12.7791 20.9364H17.3203C16.9889 21.8708 16.0964 22.5422 15.0497 22.5422C14.0029 22.5422 13.1105 21.8708 12.7791 20.9364ZM36.3392 19.3305L34.1524 14.9569C34.0155 14.6831 33.7404 14.5131 33.4343 14.5131H30.584L31.7884 19.3305H36.3392ZM30.1332 19.3305H25.5411V14.5131H28.9288L30.1332 19.3305ZM28.0034 22.5422C29.0501 22.5422 29.9426 21.8708 30.274 20.9364H25.6879C26.0345 21.8613 26.9549 22.5422 28.0034 22.5422ZM23.9353 14.5131V19.3305H19.2898L20.4941 14.5131H23.9353ZM21.473 22.5422C22.5215 22.5422 23.4419 21.8613 23.7885 20.9364H19.2024C19.5338 21.8708 20.4263 22.5422 21.473 22.5422ZM15.3241 14.9569C15.4609 14.6831 15.7361 14.5131 16.0422 14.5131H18.8388L17.6345 19.3305H13.1372L15.3241 14.9569ZM34.4267 35.3888C34.8694 35.3888 35.2296 35.0286 35.2296 34.5859V24.0672C34.9701 24.1201 34.7016 24.148 34.4267 24.148C33.1149 24.148 31.9481 23.5154 31.2151 22.5394C30.482 23.5154 29.3153 24.148 28.0034 24.148C26.9312 24.148 25.9159 23.7327 25.1444 22.9787C24.9961 22.8336 24.8606 22.6796 24.7382 22.5179C24.6158 22.6796 24.4804 22.8336 24.3321 22.9786C23.5606 23.7327 22.5452 24.148 21.473 24.148C20.1612 24.148 18.9944 23.5154 18.2614 22.5394C17.5283 23.5154 16.3616 24.148 15.0497 24.148C14.7748 24.148 14.5063 24.1201 14.2468 24.0672V34.5859C14.2468 35.0286 14.607 35.3888 15.0497 35.3888H34.4267Z" fill="white"/>
<path d="M32.7672 28.9656H30.3585C29.9151 28.9656 29.5556 29.3251 29.5556 29.7685C29.5556 30.2119 29.9151 30.5714 30.3585 30.5714H31.8262C31.4948 31.5059 30.6023 32.1772 29.5556 32.1772C28.2274 32.1772 27.1468 31.0967 27.1468 29.7685C27.1468 28.4403 28.2274 27.3597 29.5556 27.3597C30.199 27.3597 30.8038 27.6103 31.2588 28.0653C31.5723 28.3788 32.0807 28.3788 32.3943 28.0653C32.7079 27.7517 32.7078 27.2434 32.3943 26.9298C31.636 26.1715 30.6279 25.7539 29.5556 25.7539C27.342 25.7539 25.541 27.5548 25.541 29.7685C25.541 31.9821 27.342 33.783 29.5556 33.783C31.7692 33.783 33.5702 31.9821 33.5702 29.7685C33.5702 29.3251 33.2107 28.9656 32.7672 28.9656V28.9656Z" fill="white"/>
</svg>
