<svg viewBox="0 0 51 50" fill="none" xmlns="http://www.w3.org/2000/svg">
<circle cx="25.5" cy="25" r="25" fill="#272728"/>
<path fill-rule="evenodd" clip-rule="evenodd" d="M37.6583 17.2816C37.9731 18.0912 38.1929 19.0254 38.2528 20.3843C38.3127 21.7482 38.3178 22.1828 38.3178 25.6551C38.3178 29.1273 38.3028 29.5619 38.2428 30.9259C38.1829 32.2848 37.963 33.2141 37.6484 34.0285C36.9839 35.7471 35.625 37.1059 33.9062 37.7705C33.0969 38.0852 32.1627 38.305 30.8038 38.3649C29.4399 38.425 29.0053 38.4398 25.533 38.4398C22.0608 38.4398 21.626 38.425 20.2622 38.3649C18.9031 38.305 17.974 38.0852 17.1596 37.7705C16.3103 37.4508 15.5359 36.9461 14.8963 36.2966C14.2469 35.6571 13.7424 34.8878 13.4176 34.0285C13.1028 33.219 12.8829 32.2848 12.823 30.9259C12.7631 29.5619 12.748 29.1273 12.748 25.6551C12.748 22.1828 12.7631 21.7482 12.8281 20.3792C12.888 19.0203 13.1077 18.0912 13.4225 17.2768C13.7424 16.4274 14.2469 15.6531 14.8963 15.0135C15.5359 14.359 16.3052 13.8594 17.1647 13.5346C17.974 13.22 18.9082 13.0001 20.2671 12.9402C21.631 12.8803 22.0656 12.8652 25.5379 12.8652C29.0101 12.8652 29.4447 12.8803 30.8138 12.9452C32.1727 13.0052 33.102 13.2249 33.9162 13.5397C34.7655 13.8594 35.5399 14.364 36.1794 15.0135C36.834 15.6531 37.3336 16.4224 37.6583 17.2816ZM35.51 33.1991C35.6849 32.7494 35.8947 32.075 35.9497 30.826C36.0097 29.477 36.0247 29.0774 36.0247 25.665C36.0247 22.2527 36.0097 21.8481 35.9497 20.4992C35.8947 19.2551 35.6849 18.5757 35.51 18.1261C35.3051 17.5715 34.9804 17.0719 34.5557 16.6571C34.1461 16.2325 33.6414 15.9077 33.087 15.703C32.6373 15.5282 31.9629 15.3184 30.7139 15.2633C29.3698 15.2034 28.9652 15.1884 25.5478 15.1884C22.1357 15.1884 21.731 15.2034 20.382 15.2633C19.1381 15.3184 18.4586 15.5282 18.0089 15.703C17.4543 15.9077 16.9547 16.2325 16.5402 16.6571C16.1104 17.067 15.7857 17.5715 15.5808 18.1261C15.4059 18.5757 15.1961 19.2502 15.1413 20.4992C15.0812 21.8431 15.0663 22.2527 15.0663 25.665C15.0663 29.0774 15.0812 29.4821 15.1413 30.831C15.1961 32.075 15.4059 32.7545 15.5808 33.2042C15.7857 33.7586 16.1104 34.2582 16.5351 34.6729C16.9447 35.0976 17.4494 35.4223 18.0038 35.6272C18.4535 35.8021 19.1279 36.0119 20.377 36.0667C21.721 36.1268 22.1306 36.1417 25.543 36.1417C28.9553 36.1417 29.3599 36.1268 30.7088 36.0667C31.9529 36.0119 32.6323 35.8021 33.0819 35.6272C34.1961 35.1975 35.0803 34.3132 35.51 33.1991Z" fill="white"/>
<path fill-rule="evenodd" clip-rule="evenodd" d="M18.9683 25.6547C18.9683 22.0275 21.911 19.085 25.538 19.085C29.1652 19.085 32.1078 22.0275 32.1078 25.6547C32.1078 29.2819 29.1652 32.2245 25.538 32.2245C21.911 32.2245 18.9683 29.2819 18.9683 25.6547ZM21.2764 25.6547C21.2764 28.008 23.185 29.9164 25.538 29.9164C27.8913 29.9164 29.7997 28.008 29.7997 25.6547C29.7997 23.3015 27.8913 21.3931 25.538 21.3931C23.185 21.3931 21.2764 23.3015 21.2764 25.6547Z" fill="white"/>
<path d="M33.9012 18.8257C33.9012 19.6727 33.2144 20.3595 32.3672 20.3595C31.5203 20.3595 30.8335 19.6727 30.8335 18.8257C30.8335 17.9786 31.5203 17.292 32.3672 17.292C33.2144 17.292 33.9012 17.9786 33.9012 18.8257V18.8257Z" fill="white"/>
</svg>
