<svg viewBox="0 0 460 327" fill="none" xmlns="http://www.w3.org/2000/svg">
<title>CSS KILLER</title>
<path d="M327.513 101.263C326.311 42.4447 289.008 0 229.994 0C170.98 0 133.685 42.4447 132.479 101.263C132.007 124.443 135.907 148.444 144.392 163.264L191.025 174.716L191.097 171.3L151.499 149.982C144.016 145.926 142.186 139.783 140.396 131.935C138.834 124.827 137.549 116.01 137.797 103.809C138.878 51.0337 174.42 16.3732 229.994 16.3732C285.568 16.3732 321.11 51.0337 322.191 103.809C322.443 116.01 321.158 124.827 319.596 131.935C317.802 139.783 315.993 145.926 308.493 149.982L268.899 171.3L268.967 174.716L315.604 163.264C324.085 148.444 327.989 124.443 327.513 101.263Z" fill="#1F1F1F"></path>
<path d="M278.665 212.808L329.186 200.311V203.538L288.428 223.062C283.546 225.261 280.86 227.211 279.154 230.871C275.494 239.171 274.028 252.345 274.028 262.592C274.028 292.624 290.137 313.113 313.566 313.113C340.166 313.113 351.15 292.856 360.415 264.302L364.564 251.368C373.593 223.303 388.733 206.705 414.837 206.705C444.868 206.705 459.988 237.702 459.988 270.16C459.988 284.315 457.79 297.981 453.153 310.202L406.784 319.72V316.06L443.146 297.265C449.493 294.093 451.687 290.678 452.909 285.064C454.13 279.694 454.618 273.852 454.618 267.245C454.618 242.843 442.902 219.411 419.473 219.411C398.972 219.411 387.504 231.371 379.431 255.777L375.283 268.466C364.544 301.661 351.366 326.067 319.396 326.067C290.35 326.067 268.875 300.44 268.875 262.368C268.903 243.56 271.586 226.718 278.665 212.808Z" fill="#1F1F1F"></path>
<path d="M191.097 262.352C191.097 300.424 169.618 326.051 140.576 326.051C108.606 326.051 95.4244 301.645 84.6891 268.45L80.5367 255.761C72.4843 231.335 61.0122 219.395 40.5146 219.395C17.082 219.395 5.36965 242.827 5.36965 267.229C5.36965 273.82 5.85816 279.678 7.07945 285.048C8.28071 290.654 10.495 294.077 16.8417 297.249L53.204 316.044V319.704L6.83519 310.186C2.19831 297.981 0 284.299 0 270.16C0 237.702 15.1319 206.705 45.1515 206.705C71.263 206.705 86.3949 223.303 95.4244 251.368L99.5728 264.302C108.851 292.856 119.83 313.113 146.422 313.113C169.851 313.113 185.96 292.612 185.96 262.592C185.96 252.345 184.494 239.171 180.834 230.871C179.124 227.211 176.43 225.265 171.561 223.062L130.814 203.538V200.311L181.335 212.808C188.41 226.718 191.097 243.56 191.097 262.352Z" fill="#1F1F1F"></path>
<path d="M239.348 212.808L231.564 174.716H228.432L220.648 212.808L229.998 210.517L239.348 212.808Z" fill="#1F1F1F"></path>

</svg>
