<svg  viewBox="0 0 24 24" fill="none" xmlns="http://www.w3.org/2000/svg">
<path d="M4 11.3179C3.62328 11.3179 3.31789 11.6233 3.31789 12C3.31789 12.3767 3.62328 12.6821 4 12.6821L4 12L4 11.3179ZM21.2323 12.4823C21.4987 12.2159 21.4987 11.7841 21.2323 11.5177L16.8914 7.17673C16.625 6.91035 16.1931 6.91035 15.9267 7.17673C15.6604 7.44312 15.6604 7.87501 15.9267 8.14139L19.7853 12L15.9267 15.8586C15.6604 16.125 15.6604 16.5569 15.9267 16.8233C16.1931 17.0896 16.625 17.0896 16.8914 16.8233L21.2323 12.4823ZM4 12L4 12.6821L20.75 12.6821L20.75 12L20.75 11.3179L4 11.3179L4 12Z" fill="black"/>
</svg>
