<svg viewBox="0 0 24 24" fill="none" xmlns="http://www.w3.org/2000/svg">
<path d="M13.0571 3.625C13.0571 3.24828 12.7517 2.94289 12.375 2.94289C11.9983 2.94289 11.6929 3.24828 11.6929 3.625H12.375H13.0571ZM11.8927 20.8573C12.1591 21.1237 12.5909 21.1237 12.8573 20.8573L17.1983 16.5164C17.4646 16.25 17.4646 15.8181 17.1983 15.5517C16.9319 15.2854 16.5 15.2854 16.2336 15.5517L12.375 19.4103L8.51639 15.5517C8.25001 15.2854 7.81812 15.2854 7.55173 15.5517C7.28535 15.8181 7.28535 16.25 7.55173 16.5164L11.8927 20.8573ZM12.375 3.625H11.6929V20.375H12.375H13.0571V3.625H12.375Z" fill="black"/>
</svg>
