<svg viewBox="0 0 310 220" fill="none" xmlns="http://www.w3.org/2000/svg">
<path d="M220.715 68.2421C219.906 28.604 194.766 0 154.996 0C115.226 0 90.0919 28.604 89.2797 68.2421C88.9613 83.8637 91.5896 100.038 97.3077 110.026L128.734 117.743L128.783 115.441L102.098 101.075C97.054 98.3411 95.8208 94.2016 94.6146 88.9126C93.5622 84.1228 92.696 78.1807 92.8633 69.9584C93.5919 34.3923 117.544 11.0341 154.996 11.0341C192.448 11.0341 216.4 34.3923 217.129 69.9584C217.299 78.1807 216.433 84.1228 215.38 88.9126C214.171 94.2016 212.952 98.3411 207.897 101.075L181.215 115.441L181.26 117.743L212.69 110.026C218.405 100.038 221.036 83.8637 220.715 68.2421Z" fill="white"/>
<path d="M187.796 143.414L221.843 134.992V137.167L194.375 150.325C191.086 151.806 189.275 153.121 188.125 155.587C185.659 161.181 184.671 170.059 184.671 176.965C184.671 197.203 195.527 211.011 211.316 211.011C229.242 211.011 236.644 197.36 242.888 178.117L245.684 169.401C251.769 150.487 261.972 139.302 279.564 139.302C299.802 139.302 309.992 160.191 309.992 182.065C309.992 191.604 308.51 200.814 305.385 209.05L274.137 215.464V212.997L298.642 200.331C302.919 198.194 304.398 195.892 305.221 192.108C306.044 188.49 306.373 184.553 306.373 180.1C306.373 163.656 298.477 147.864 282.688 147.864C268.872 147.864 261.144 155.924 255.704 172.372L252.908 180.923C245.671 203.294 236.79 219.741 215.245 219.741C195.67 219.741 181.198 202.471 181.198 176.813C181.217 164.139 183.025 152.789 187.796 143.414Z" fill="white"/>
<path d="M128.783 176.803C128.783 202.46 114.308 219.73 94.7359 219.73C73.1912 219.73 64.3078 203.283 57.0731 180.912L54.2748 172.361C48.8481 155.9 41.1169 147.853 27.3033 147.853C11.5118 147.853 3.61868 163.645 3.61868 180.089C3.61868 184.531 3.94789 188.479 4.77093 192.098C5.58048 195.876 7.07275 198.183 11.3499 200.32L35.8549 212.987V215.453L4.60633 209.039C1.48147 200.814 0 191.593 0 182.065C0 160.191 10.1976 139.302 30.4282 139.302C48.0251 139.302 58.2227 150.487 64.3077 169.401L67.1034 178.117C73.3558 197.36 80.7551 211.011 98.6757 211.011C114.465 211.011 125.321 197.195 125.321 176.965C125.321 170.059 124.333 161.181 121.867 155.587C120.714 153.121 118.898 151.809 115.617 150.325L88.157 137.167V134.992L122.204 143.414C126.972 152.789 128.783 164.139 128.783 176.803Z" fill="white"/>
<path d="M161.299 143.414L156.053 117.743H153.943L148.697 143.414L154.998 141.87L161.299 143.414Z" fill="white"/>
</svg>
