
<svg  viewBox="0 0 16 15" fill="none" xmlns="http://www.w3.org/2000/svg">
<path d="M16.0002 9.07658V14.8045H12.7137V9.46004C12.7137 8.11715 12.2381 7.20118 11.0489 7.20118C10.1409 7.20118 9.60002 7.81907 9.36264 8.416C9.27583 8.62947 9.25355 8.92677 9.25355 9.22562V14.8045H5.96551C5.96551 14.8045 6.01006 5.7535 5.96551 4.81502H9.25355V6.23088L9.23204 6.26349H9.25355V6.23088C9.68991 5.55167 10.4697 4.5806 12.2159 4.5806C14.3784 4.5806 16.0002 6.00888 16.0002 9.07658ZM2.52689 0C1.40296 0 0.666992 0.745191 0.666992 1.72558C0.666992 2.68424 1.38145 3.45194 2.48387 3.45194H2.50538C3.65235 3.45194 4.36451 2.68424 4.36451 1.72558C4.34453 0.745191 3.65312 0 2.52766 0H2.52689ZM0.862124 14.8045H4.14863V4.81502H0.862124V14.8045Z" fill="#090617"/>
</svg>
