<svg viewBox="0 0 172 54" fill="none" xmlns="http://www.w3.org/2000/svg">
<g clip-path="url(#clip0_236_48)">
<path d="M64.8422 21.0372C65.9248 22.1431 67.195 23.0066 68.6529 23.6276C70.1107 24.2486 71.6754 24.5591 73.3498 24.5591C74.5507 24.5591 75.7257 24.3846 76.8717 24.0357C78.0178 23.6867 79.086 23.184 80.0733 22.5305C81.0606 21.877 81.9064 21.0993 82.6137 20.1944L79.5248 17.0126C78.754 17.9825 77.8533 18.7277 76.8227 19.2452C75.7921 19.7656 74.6893 20.0229 73.5086 20.0229C72.4779 20.0229 71.5137 19.8307 70.613 19.4463C69.7123 19.0619 68.9358 18.5207 68.2805 17.8228C67.6251 17.125 67.1113 16.3118 66.736 15.3862C66.3607 14.4606 66.173 13.4582 66.173 12.3729C66.173 11.2877 66.3549 10.2468 66.7187 9.30937C67.0824 8.37197 67.5876 7.56172 68.2314 6.87272C68.8751 6.18372 69.6344 5.64257 70.5149 5.24928C71.3954 4.85599 72.3365 4.65786 73.3469 4.65786C74.568 4.65786 75.7112 4.92991 76.7736 5.47106C77.836 6.01221 78.7742 6.81358 79.5883 7.87518L82.7407 4.5928C82.0334 3.66724 81.1818 2.87769 80.183 2.22418C79.187 1.57066 78.1073 1.06204 76.9497 0.701273C75.7921 0.340508 74.5911 0.160126 73.3469 0.160126C71.6754 0.160126 70.1136 0.47062 68.6673 1.09161C67.221 1.7126 65.9508 2.57607 64.8566 3.68202C63.7625 4.78797 62.9109 6.08022 62.2989 7.55877C61.6869 9.03731 61.3809 10.646 61.3809 12.3818C61.3809 14.1176 61.6869 15.6937 62.2989 17.1723C62.9109 18.6508 63.7567 19.9431 64.8393 21.049L64.8422 21.0372Z" fill="#1D1D1B"/>
<path d="M88.7598 7.29559H84.5132V24.5561H88.7598V7.29559Z" fill="#1D1D1B"/>
<path d="M86.6351 5.31138C87.2991 5.31138 87.8736 5.05708 88.3557 4.54846C88.8378 4.03984 89.0803 3.43659 89.0803 2.73872C89.0803 2.04084 88.8378 1.43464 88.3557 0.928976C87.8736 0.420356 87.2991 0.166046 86.6351 0.166046C85.9711 0.166046 85.4226 0.420356 84.929 0.928976C84.4353 1.4376 84.1899 2.04084 84.1899 2.73872C84.1899 3.43659 84.4353 4.04279 84.929 4.54846C85.4226 5.05708 85.9913 5.31138 86.6351 5.31138Z" fill="#1D1D1B"/>
<path d="M102.011 23.2373L100.53 19.8869C100.25 20.0909 99.9839 20.2417 99.7241 20.3452C99.4672 20.4458 99.2305 20.499 99.0168 20.499C98.4366 20.499 97.9978 20.3127 97.6975 19.9401C97.3973 19.5675 97.2472 19.0205 97.2472 18.2989V11.0895H101.269V7.29854H97.2472V2.01422H93.0006V7.29559H90.3938V11.0866H93.0006V19.2777C93.0006 20.9928 93.4568 22.3117 94.369 23.2373C95.2812 24.1628 96.6265 24.6241 98.4048 24.6241C99.0255 24.6241 99.6548 24.494 100.287 24.2338C100.919 23.9736 101.494 23.6424 102.008 23.2343L102.011 23.2373Z" fill="#1D1D1B"/>
<path d="M108.699 25.7419C108.486 26.2387 108.206 26.6172 107.862 26.8745C107.519 27.1347 107.123 27.2648 106.673 27.2648C106.436 27.2648 106.162 27.2027 105.853 27.0785C105.541 26.9543 105.203 26.7917 104.84 26.5877L103.263 30.2101C103.8 30.5265 104.415 30.8015 105.114 31.0381C105.81 31.2746 106.448 31.3929 107.028 31.3929C108.185 31.3929 109.124 31.1564 109.842 30.6832C110.561 30.2101 111.168 29.5388 111.661 28.6694C112.155 27.8001 112.625 26.8035 113.076 25.6739L120.377 7.29559H115.711L111.349 19.0145L106.768 7.29559H102.103L109.386 24.0298L108.696 25.7419H108.699Z" fill="#1D1D1B"/>
<path d="M74.8799 36.7216C73.5173 35.9084 72.0017 35.5033 70.3273 35.5033C68.6529 35.5033 67.1373 35.9084 65.7747 36.7216C64.4121 37.5348 63.3411 38.6348 62.5587 40.0217C61.7764 41.4086 61.3838 42.9611 61.3838 44.6762C61.3838 46.3913 61.7735 47.9379 62.5587 49.3129C63.3411 50.6909 64.4121 51.785 65.7747 52.5953C67.1373 53.4085 68.6529 53.8136 70.3273 53.8136C72.0017 53.8136 73.5173 53.4085 74.8799 52.5953C76.2424 51.7821 77.3135 50.6879 78.0958 49.3129C78.8782 47.9379 79.2708 46.3913 79.2708 44.6762C79.2708 42.9611 78.8782 41.4115 78.0958 40.0217C77.3135 38.6348 76.2396 37.5348 74.8799 36.7216ZM74.3487 47.2459C73.9416 48.0118 73.3873 48.6269 72.6916 49.0911C71.9959 49.5524 71.2078 49.786 70.3273 49.786C69.4468 49.786 68.6875 49.5554 67.9803 49.0911C67.273 48.6298 66.7158 48.0147 66.3088 47.2459C65.9017 46.48 65.6968 45.6224 65.6968 44.6732C65.6968 43.724 65.8988 42.8339 66.3088 42.068C66.7158 41.3021 67.273 40.6871 67.9803 40.2228C68.6875 39.7615 69.4699 39.5279 70.3273 39.5279C71.1847 39.5279 71.993 39.7585 72.6916 40.2228C73.3873 40.6841 73.9416 41.2992 74.3487 42.068C74.7557 42.8339 74.9607 43.7033 74.9607 44.6732C74.9607 45.6431 74.7557 46.48 74.3487 47.2459Z" fill="#1D1D1B"/>
<path d="M89.3372 28.3619C87.2991 28.3619 85.7287 28.8853 84.6259 29.9351C83.5202 30.9848 82.9688 32.5018 82.9688 34.486V36.1775H79.239V40.069H82.9688V53.8106H87.3771V40.069H91.9441V36.1775H87.3771V34.5866C87.3771 33.797 87.5907 33.2145 88.0208 32.8449C88.451 32.4723 89.0832 32.286 89.9175 32.286C90.261 32.286 90.5873 32.3096 90.899 32.354C91.2108 32.3983 91.5572 32.4664 91.9441 32.558V28.6665C91.6005 28.5541 91.1935 28.4743 90.7229 28.4299C90.2524 28.3856 89.7905 28.3619 89.3401 28.3619H89.3372Z" fill="#1D1D1B"/>
<path d="M110.229 49.2597C109.574 49.5879 108.873 49.7505 108.122 49.7505C107.265 49.7505 106.488 49.5317 105.789 49.0911C105.094 48.6505 104.539 48.0413 104.132 47.2636C103.725 46.4859 103.52 45.6224 103.52 44.6732C103.52 43.724 103.719 42.8014 104.115 42.0325C104.51 41.2666 105.053 40.6604 105.74 40.2228C106.427 39.7822 107.187 39.5634 108.024 39.5634C108.818 39.5634 109.551 39.7319 110.226 40.072C110.902 40.4121 111.552 40.9414 112.172 41.6629L114.874 38.6496C114.017 37.6353 112.978 36.8547 111.754 36.3135C110.532 35.7724 109.256 35.5003 107.926 35.5003C106.274 35.5003 104.785 35.9054 103.454 36.7186C102.123 37.5318 101.072 38.626 100.301 40.001C99.5306 41.379 99.1438 42.9344 99.1438 44.6703C99.1438 46.4061 99.5306 47.9349 100.301 49.3247C101.072 50.7116 102.123 51.8057 103.454 52.6071C104.782 53.4085 106.274 53.8077 107.926 53.8077C109.213 53.8077 110.455 53.5297 111.658 52.9797C112.859 52.4267 113.887 51.6667 114.747 50.6939L112.109 47.7841C111.508 48.4376 110.882 48.9285 110.226 49.2567L110.229 49.2597Z" fill="#1D1D1B"/>
<path d="M128.37 36.7216C127.008 35.9084 125.492 35.5033 123.818 35.5033C122.143 35.5033 120.628 35.9084 119.265 36.7216C117.903 37.5348 116.832 38.6348 116.049 40.0217C115.267 41.4086 114.874 42.9611 114.874 44.6762C114.874 46.3913 115.264 47.9379 116.049 49.3129C116.832 50.6909 117.903 51.785 119.265 52.5953C120.628 53.4085 122.143 53.8136 123.818 53.8136C125.492 53.8136 127.008 53.4085 128.37 52.5953C129.733 51.7821 130.804 50.6879 131.586 49.3129C132.369 47.9379 132.761 46.3913 132.761 44.6762C132.761 42.9611 132.369 41.4115 131.586 40.0217C130.804 38.6348 129.73 37.5348 128.37 36.7216ZM127.839 47.2459C127.432 48.0118 126.878 48.6269 126.182 49.0911C125.486 49.5524 124.698 49.786 123.818 49.786C122.937 49.786 122.178 49.5554 121.471 49.0911C120.763 48.6298 120.206 48.0147 119.799 47.2459C119.392 46.48 119.187 45.6224 119.187 44.6732C119.187 43.724 119.389 42.8339 119.799 42.068C120.206 41.3021 120.763 40.6871 121.471 40.2228C122.178 39.7615 122.96 39.5279 123.818 39.5279C124.675 39.5279 125.483 39.7585 126.182 40.2228C126.878 40.6841 127.432 41.2992 127.839 42.068C128.246 42.8339 128.451 43.7033 128.451 44.6732C128.451 45.6431 128.246 46.48 127.839 47.2459Z" fill="#1D1D1B"/>
<path d="M138.905 30.1214H134.658V53.8136H138.905V30.1214Z" fill="#1D1D1B"/>
<path d="M154.294 36.7216C152.932 35.9084 151.416 35.5033 149.742 35.5033C148.067 35.5033 146.552 35.9084 145.189 36.7216C143.827 37.5348 142.756 38.6348 141.973 40.0217C141.191 41.4086 140.798 42.9611 140.798 44.6762C140.798 46.3913 141.188 47.9379 141.973 49.3129C142.756 50.6909 143.827 51.785 145.189 52.5953C146.552 53.4085 148.067 53.8136 149.742 53.8136C151.416 53.8136 152.932 53.4085 154.294 52.5953C155.657 51.7821 156.728 50.6879 157.51 49.3129C158.293 47.9379 158.685 46.3913 158.685 44.6762C158.685 42.9611 158.293 41.4115 157.51 40.0217C156.728 38.6348 155.654 37.5348 154.294 36.7216ZM153.766 47.2459C153.359 48.0118 152.805 48.6269 152.109 49.0911C151.413 49.5524 150.625 49.786 149.745 49.786C148.864 49.786 148.105 49.5554 147.398 49.0911C146.69 48.6298 146.133 48.0147 145.726 47.2459C145.319 46.48 145.114 45.6224 145.114 44.6732C145.114 43.724 145.316 42.8339 145.726 42.068C146.133 41.3021 146.69 40.6871 147.398 40.2228C148.105 39.7615 148.887 39.5279 149.745 39.5279C150.602 39.5279 151.41 39.7585 152.109 40.2228C152.805 40.6841 153.359 41.2992 153.766 42.068C154.173 42.8339 154.378 43.7033 154.378 44.6732C154.378 45.6431 154.173 46.48 153.766 47.2459Z" fill="#1D1D1B"/>
<path d="M16.3343 31.5615C24.81 31.5615 31.6809 24.5234 31.6809 15.8416C31.6809 7.15973 24.81 0.121689 16.3343 0.121689C7.85867 0.121689 0.987793 7.15973 0.987793 15.8416C0.987793 24.5234 7.85867 31.5615 16.3343 31.5615Z" fill="#FFA8A7"/>
<path d="M38.0348 53.7899C46.5104 53.7899 53.3813 46.7519 53.3813 38.07C53.3813 29.3882 46.5104 22.3501 38.0348 22.3501C29.5591 22.3501 22.6882 29.3882 22.6882 38.07C22.6882 46.7519 29.5591 53.7899 38.0348 53.7899Z" fill="#1979F4"/>
<path d="M5.48263 49.1857C11.4757 55.3247 21.1929 55.3247 27.1831 49.1857L5.48263 26.9543C-0.510487 33.0933 -0.510487 43.0468 5.48263 49.1828V49.1857Z" fill="#FBBC1F"/>
<path d="M48.8865 4.72588C42.8934 -1.41304 33.1763 -1.41304 27.186 4.72588L48.8865 26.9543C54.8797 20.8154 54.8797 10.8618 48.8865 4.72588Z" fill="#EF4D26"/>
<path d="M171.012 40.1725V36.0829C170.605 35.8581 169.996 35.7339 169.182 35.7103C168.241 35.7103 167.395 35.9143 166.644 36.3194C165.894 36.7246 165.253 37.3101 164.719 38.076V36.1154H160.319V53.719H164.719V44.1291C164.719 43.032 164.909 41.1218 166.861 40.1311C166.887 40.1193 166.913 40.1045 166.942 40.0927C166.953 40.0868 166.965 40.0809 166.976 40.0749C167.531 39.8266 168.125 39.6994 168.763 39.6994C169.049 39.6994 169.326 39.7201 169.601 39.7585C170.236 39.8591 170.721 40.0483 170.917 40.1311C170.949 40.1459 170.981 40.1577 171.009 40.1725H171.012Z" fill="#1D1D1B"/>
</g>
<defs>
<clipPath id="clip0_236_48">
<rect width="170.024" height="53.6919" fill="white" transform="translate(0.987793 0.121689)"/>
</clipPath>
</defs>
</svg>
