<svg width="71" height="71" viewBox="0 0 71 71" fill="none" xmlns="http://www.w3.org/2000/svg">
<g clip-path="url(#clip0_104_597)">
<path d="M35.4644 70.878C54.7938 70.878 70.4635 55.2084 70.4635 35.8789C70.4635 16.5495 54.7938 0.879883 35.4644 0.879883C16.1349 0.879883 0.465332 16.5495 0.465332 35.8789C0.465332 55.2084 16.1349 70.878 35.4644 70.878Z" fill="#FBBC1F"/>
<path d="M26.5265 39.5833C33.5086 39.5833 39.1687 33.9232 39.1687 26.9411C39.1687 19.9589 33.5086 14.2988 26.5265 14.2988C19.5444 14.2988 13.8843 19.9589 13.8843 26.9411C13.8843 33.9232 19.5444 39.5833 26.5265 39.5833Z" fill="#F4F3E7"/>
<path d="M44.4041 57.461C51.3862 57.461 57.0463 51.8009 57.0463 44.8188C57.0463 37.8366 51.3862 32.1765 44.4041 32.1765C37.422 32.1765 31.7618 37.8366 31.7618 44.8188C31.7618 51.8009 37.422 57.461 44.4041 57.461Z" fill="#F4F3E7"/>
<path d="M17.5868 53.7565C22.5234 58.6932 30.5277 58.6932 35.4644 53.7565L17.5868 35.8789C12.6501 40.8156 12.6501 48.8199 17.5868 53.7565Z" fill="#F4F3E7"/>
<path d="M53.342 18.0013C48.4053 13.0647 40.401 13.0647 35.4644 18.0013L53.342 35.8789C58.2786 30.9423 58.2786 22.938 53.342 18.0013Z" fill="#F4F3E7"/>
</g>
<defs>
<clipPath id="clip0_104_597">
<rect width="70" height="70" fill="white" transform="translate(0.465332 0.879883)"/>
</clipPath>
</defs>
</svg>
