<svg viewBox="0 0 247 38" fill="none" xmlns="http://www.w3.org/2000/svg"><g fill="#3437B8"><path d="M66.03 17.85H37.56v-1.1h28.47v1.1Zm56-2.45h-17.86V.79h-4.39v33.03h4.39V19.11h17.86v14.71h4.4V.79h-4.4v14.62-.01Zm-28.39-5.14C93.41 3.27 88.69-.01 81.52-.01c-3.33 0-6.2.83-8.61 2.5-2.36 1.67-3.56 4.07-3.56 7.17 0 12.12 21.14 5.18 21.14 15.22 0 2.17-.83 3.7-2.54 4.63-1.71.93-3.75 1.39-6.11 1.39-2.73 0-5-.6-6.75-1.8-1.76-1.25-2.64-3.15-2.64-5.74h-4.4c0 3.75 1.3 6.57 3.89 8.47 2.59 1.85 5.88 2.78 9.9 2.78 4.3 0 8.24-1.11 10.96-4.21 1.39-1.53 2.08-3.42 2.08-5.64 0-13.37-21.14-6.85-21.14-15.41 0-1.99.74-3.42 2.27-4.3 1.53-.88 3.33-1.34 5.51-1.34 4.67 0 7.22 1.94 7.73 6.57h4.39v-.02ZM17.27 30.18c-7.1 0-12.88-5.78-12.88-12.88 0-7.1 5.78-12.88 12.88-12.88 7.1 0 12.88 5.78 12.88 12.88 0 7.1-5.78 12.88-12.88 12.88Zm0-30.15C7.75.03 0 7.78 0 17.3s7.75 17.27 17.27 17.27 17.27-7.75 17.27-17.27S26.8.03 17.27.03ZM207.1 31.87h-1.76v1.89h1.76v-1.89Zm-10.48 1.89v-5.55c0-.56.12-1.05.35-1.46.23-.41.55-.72.94-.93.4-.22.82-.32 1.26-.32.3 0 .57.03.82.09s.46.16.63.31c.17.14.31.34.41.59.1.25.15.57.15.97v6.31h1.58v-6.53c0-.78-.13-1.4-.39-1.85-.26-.45-.61-.78-1.06-.99-.45-.2-.97-.31-1.57-.31-.44 0-.86.06-1.25.17a3.2 3.2 0 0 0-1.06.53c-.32.24-.6.55-.85.93h-.13l-.14-1.42h-1.28v9.46h1.59Zm-8.92-4.96c-.33-.16-.59-.38-.76-.66-.17-.29-.25-.62-.25-.99 0-.57.19-1.03.57-1.37.38-.34.95-.5 1.72-.5s1.34.17 1.71.5c.37.34.56.79.56 1.37 0 .58-.19 1.05-.56 1.39-.37.34-.94.5-1.71.5-.52 0-.94-.08-1.28-.23m-1.4 6.67c-.26-.24-.4-.56-.4-.95 0-.37.13-.69.4-.94.26-.26.59-.39.97-.39h3.63c.36 0 .66.12.9.36s.36.56.36.97c0 .24-.07.46-.2.66s-.31.36-.54.48c-.23.11-.48.17-.76.17h-3.4c-.38 0-.71-.12-.97-.36m4.39 1.56c.61 0 1.15-.12 1.61-.37.46-.25.82-.58 1.08-.99.26-.41.39-.88.39-1.39 0-.72-.22-1.31-.67-1.77-.44-.46-1.01-.69-1.71-.69h-3.85c-.32 0-.59-.07-.79-.22a.717.717 0 0 1-.31-.59c0-.28.1-.48.31-.6.2-.13.47-.19.79-.19H189c.85 0 1.56-.13 2.12-.39s.99-.63 1.27-1.09c.28-.46.42-.99.42-1.59 0-.42-.08-.81-.23-1.17-.15-.36-.37-.68-.67-.97.4-.07.73-.21 1.01-.42.27-.21.49-.47.66-.79.16-.32.24-.66.24-1.02h-1.56c-.05.31-.18.62-.39.92-.21.3-.52.55-.94.74a3.28 3.28 0 0 0-.9-.26c-.34-.05-.7-.08-1.08-.08-.84 0-1.55.13-2.13.4-.58.26-1.01.62-1.29 1.08-.28.46-.42.98-.42 1.58 0 .5.12.96.35 1.38.23.41.55.75.96 1.01-.44.1-.82.29-1.12.58-.31.29-.46.64-.46 1.06 0 .31.08.6.25.85.17.26.4.46.7.6-.41.17-.76.43-1.05.77-.29.35-.44.79-.44 1.31 0 .48.11.89.34 1.24.23.35.53.61.92.8.38.19.8.28 1.26.28h3.87l-.01-.01Zm-7.75-12.73h-1.58v9.46h1.58v-9.46Zm0-3.54h-1.58v1.76h1.58v-1.76Zm-5.71 13.04c.47-.11.89-.29 1.24-.53.35-.24.63-.55.82-.92.19-.37.29-.81.29-1.31 0-.54-.11-.97-.33-1.3-.22-.33-.51-.59-.88-.78-.37-.19-.77-.35-1.2-.48-.44-.13-.87-.25-1.29-.37-.4-.13-.76-.25-1.11-.36-.34-.11-.61-.24-.82-.41-.2-.17-.31-.41-.31-.72 0-.19.04-.36.13-.51.09-.15.21-.28.38-.4.17-.11.38-.2.63-.25.25-.05.55-.08.9-.08.54 0 .96.07 1.27.21.31.14.52.32.65.54.13.22.19.45.19.69v.2h1.55s.02-.09.02-.15v-.21c0-.35-.07-.67-.22-.98-.14-.31-.37-.58-.67-.82-.3-.24-.67-.43-1.12-.56-.45-.13-.97-.2-1.57-.2-.56 0-1.08.06-1.54.17-.46.11-.85.28-1.18.51-.32.23-.57.5-.75.83-.17.32-.26.69-.26 1.11 0 .47.09.85.28 1.16.18.31.43.55.74.75.3.19.65.35 1.03.49.38.13.77.25 1.15.36.46.13.89.26 1.31.38.42.12.76.28 1.02.49.26.21.39.51.39.91 0 .32-.1.59-.3.8-.2.21-.46.37-.8.47-.34.1-.7.15-1.1.15-.46 0-.87-.05-1.24-.14-.37-.1-.66-.26-.87-.5-.21-.24-.32-.57-.33-.99v-.11s0-.08.02-.13h-1.56s-.02.08-.02.13v.17c0 .44.08.84.25 1.19.17.35.41.65.74.9.32.25.73.44 1.22.58.49.13 1.06.2 1.71.2.56 0 1.08-.06 1.55-.17m-13.03-7.18c.2-.42.5-.73.88-.93.38-.2.85-.31 1.4-.31.37 0 .7.05 1 .15.29.1.55.27.77.49.22.23.39.52.51.88s.18.8.18 1.33h-5.12c.05-.66.17-1.2.38-1.62m3.99 7.1c.5-.17.93-.4 1.28-.7.35-.3.61-.66.79-1.09.18-.42.28-.89.29-1.39H169c-.01.31-.07.6-.18.86-.11.26-.27.49-.48.68-.21.19-.47.34-.77.44-.31.1-.66.15-1.07.15-.6 0-1.1-.11-1.49-.33-.4-.22-.69-.58-.89-1.06-.2-.48-.31-1.11-.33-1.86h6.8v-.75c0-1.02-.15-1.87-.46-2.54-.31-.68-.76-1.19-1.36-1.53-.6-.34-1.34-.51-2.23-.51-.97 0-1.78.18-2.43.53-.65.35-1.14.89-1.46 1.62-.33.73-.49 1.66-.49 2.8s.16 2.06.49 2.79c.33.73.82 1.27 1.46 1.63.64.35 1.43.53 2.36.53.65 0 1.22-.08 1.73-.25m-16.51-10.82h2.86c.7 0 1.31.09 1.85.26s1 .44 1.38.8c.38.36.66.82.86 1.39.2.57.3 1.26.3 2.08v.36c0 .79-.1 1.47-.3 2.04-.2.57-.49 1.03-.87 1.39-.38.36-.85.63-1.38.8-.54.17-1.15.26-1.83.26h-2.86v-9.38h-.01Zm2.89 10.86c1.29 0 2.4-.22 3.31-.66.91-.44 1.61-1.11 2.09-2.02.49-.91.73-2.07.73-3.49 0-1.42-.24-2.61-.73-3.51-.49-.91-1.18-1.57-2.09-2-.91-.43-2.01-.65-3.31-.65h-4.6v12.33h4.6ZM246.81 13.9h-1.76v1.89h1.76V13.9Zm-10.29-5.25c.2-.42.5-.73.88-.93.38-.2.85-.31 1.4-.31.37 0 .7.05 1 .15.29.1.55.27.77.5.22.23.39.52.51.88s.18.8.18 1.33h-5.12c.05-.66.17-1.2.38-1.62Zm3.99 7.1c.5-.17.93-.4 1.28-.7.35-.3.61-.66.79-1.09.18-.43.28-.89.29-1.39h-1.55c-.01.31-.07.6-.18.86-.11.26-.27.49-.48.68-.21.19-.47.34-.77.44-.31.1-.66.15-1.07.15-.6 0-1.1-.11-1.49-.33-.4-.22-.69-.58-.89-1.06-.2-.49-.31-1.11-.33-1.86h6.8v-.75c0-1.02-.15-1.87-.46-2.54-.31-.68-.76-1.19-1.36-1.53-.6-.34-1.34-.51-2.23-.51-.97 0-1.78.18-2.43.53-.65.35-1.14.89-1.46 1.62-.33.73-.5 1.66-.5 2.8s.17 2.06.5 2.79c.33.73.81 1.27 1.46 1.63.64.35 1.43.53 2.36.53.65 0 1.22-.08 1.73-.25m-9.53.04v-5.27c0-.4.04-.77.13-1.11.09-.35.23-.65.42-.9.19-.25.43-.45.73-.58.29-.14.64-.21 1.05-.21h.59V6.28c-.07-.04-.18-.07-.33-.1-.15-.03-.32-.05-.49-.05-.42 0-.77.09-1.06.26-.29.17-.52.4-.68.66-.17.27-.3.55-.4.85h-.13l-.14-1.56h-1.28v9.46h1.58l.01.01Zm-7.33.05a3.2 3.2 0 0 0 1.06-.53c.32-.24.6-.55.85-.93h.12l.14 1.42h1.28V6.33h-1.58v5.56c0 .55-.12 1.03-.37 1.45-.25.41-.56.73-.94.94-.38.22-.8.32-1.26.32-.29 0-.55-.03-.8-.09s-.46-.16-.64-.31c-.18-.14-.32-.34-.41-.59-.1-.25-.14-.58-.14-.97V6.33h-1.58v6.53c0 1.16.28 1.98.83 2.44.55.47 1.28.7 2.19.7.44 0 .86-.06 1.25-.17m-6.64.13c.17-.03.35-.06.51-.1.17-.04.31-.08.43-.14v-1.04h-1.01c-.3 0-.5-.07-.61-.22-.11-.15-.16-.38-.16-.67V7.68h1.78V6.35h-1.78V3.71h-1.26l-.29 2.64h-1.26v1.33h1.22v6.35c0 .35.06.67.18.98.12.31.32.55.59.74.28.19.66.28 1.15.28.15 0 .32-.02.49-.05m-6.54-.23c.48-.19.88-.45 1.19-.78.31-.33.54-.73.69-1.19.15-.46.23-.95.23-1.48h-1.55c0 .5-.07.93-.22 1.3-.15.36-.39.64-.72.83-.33.19-.76.29-1.3.29s-1.02-.12-1.4-.36c-.38-.24-.67-.62-.87-1.13-.2-.52-.3-1.16-.3-1.94v-.38c0-.83.1-1.49.3-2 .2-.5.5-.87.88-1.11.38-.23.84-.35 1.37-.35.53 0 .95.09 1.28.26.32.17.56.44.71.79.15.35.22.81.22 1.36h1.6c0-.59-.07-1.11-.23-1.56a3.13 3.13 0 0 0-.69-1.17c-.31-.32-.7-.57-1.18-.74-.47-.17-1.03-.25-1.68-.25-.92 0-1.7.18-2.33.54-.63.36-1.1.91-1.42 1.64-.32.73-.48 1.65-.48 2.77s.16 2.04.48 2.78c.32.74.79 1.28 1.4 1.64.62.35 1.38.53 2.29.53.67 0 1.25-.09 1.72-.28m-13.49-7.07c.2-.42.5-.73.88-.93.38-.2.85-.31 1.4-.31.37 0 .7.05 1 .15.29.1.55.27.77.5.22.23.39.52.51.88s.18.8.18 1.33h-5.12c.05-.66.17-1.2.38-1.62Zm3.99 7.1c.5-.17.93-.4 1.28-.7.35-.3.61-.66.79-1.09.18-.43.28-.89.29-1.39h-1.55c-.01.31-.07.6-.18.86-.11.26-.27.49-.48.68-.21.19-.47.34-.77.44-.31.1-.66.15-1.07.15-.6 0-1.1-.11-1.49-.33-.39-.22-.69-.58-.89-1.06-.2-.49-.31-1.11-.33-1.86h6.8v-.75c0-1.02-.15-1.87-.46-2.54-.31-.67-.76-1.19-1.36-1.53-.6-.34-1.34-.51-2.23-.51-.97 0-1.78.18-2.43.53-.65.35-1.14.89-1.47 1.62-.33.73-.49 1.66-.49 2.8s.16 2.06.49 2.79c.33.73.82 1.27 1.46 1.63.64.35 1.43.53 2.36.53.65 0 1.22-.08 1.73-.25m-7.96.21c.17-.03.34-.06.51-.1.17-.04.31-.08.43-.14v-1.04h-1.01c-.3 0-.5-.07-.61-.22-.11-.15-.16-.38-.16-.67V7.74h1.78V6.41h-1.78V3.77h-1.26l-.29 2.64h-1.26v1.33h1.22v6.35c0 .35.06.67.18.98.12.31.32.55.59.74.28.19.66.28 1.15.28.16 0 .32-.02.49-.05m-4.99-9.63h-1.58v9.46h1.58V6.33v.08Zm0-3.54h-1.58v1.76h1.58V2.87Zm-9.94 13v-5.55c0-.59.12-1.08.35-1.48.23-.4.55-.71.94-.92.4-.21.81-.32 1.26-.32.3 0 .57.03.82.09.24.06.46.16.63.31.17.14.31.34.41.59.1.25.15.58.15.97v6.31h1.58V9.34c0-.78-.13-1.4-.39-1.85-.26-.45-.61-.78-1.06-.99-.45-.2-.97-.31-1.57-.31-.43 0-.83.05-1.19.15-.37.1-.7.25-1 .46-.3.2-.57.47-.81.79h-.13v-4.8h-1.58v13h1.58l.01.08Zm-5.41-.06c.48-.19.88-.45 1.19-.78.31-.33.54-.73.69-1.19.15-.46.22-.95.22-1.48h-1.55c0 .5-.07.93-.22 1.3-.15.36-.39.64-.72.83-.33.19-.76.29-1.3.29s-1.02-.12-1.4-.36c-.38-.24-.67-.62-.87-1.13-.2-.52-.3-1.16-.3-1.94v-.38c0-.83.1-1.49.31-2 .2-.5.5-.87.88-1.11.38-.23.84-.35 1.37-.35.53 0 .95.09 1.28.26.32.17.56.44.71.79.15.35.22.81.22 1.36h1.6c0-.59-.07-1.11-.22-1.56a3.13 3.13 0 0 0-.69-1.17c-.31-.32-.7-.57-1.18-.74-.47-.17-1.03-.25-1.68-.25-.92 0-1.7.18-2.33.54-.63.36-1.1.91-1.42 1.64-.32.73-.48 1.65-.48 2.77s.16 2.04.48 2.78c.32.74.79 1.28 1.4 1.64.62.35 1.38.53 2.29.53.67 0 1.25-.09 1.73-.28m-9.35.06v-5.27c0-.4.04-.77.13-1.11.09-.35.23-.65.42-.9.19-.25.43-.45.73-.58.29-.14.64-.21 1.05-.21h.59V6.35c-.07-.04-.18-.07-.33-.1a2.46 2.46 0 0 0-.49-.05c-.42 0-.77.09-1.06.26-.29.17-.51.4-.68.66-.17.27-.3.55-.4.85h-.13l-.14-1.56h-1.28v9.46h1.58l.01.01Zm-9.76-8.38c.07-.2.16-.45.27-.75.11-.29.22-.6.32-.91.11-.31.2-.59.29-.83h.11c.07.2.15.43.23.67.08.25.17.49.25.72.08.23.16.45.23.64s.13.34.16.45l1.49 3.87h-4.87l1.51-3.87.01.01Zm-3.25 8.38 1.19-3.06h6l1.21 3.06h1.85l-4.89-12.33h-2.25l-4.87 12.33h1.76Z"/></g></svg>