<svg viewBox="0 0 44 44" fill="none" xmlns="http://www.w3.org/2000/svg">
<path d="M12.9743 25.6862C19.9564 25.6862 25.6165 20.0261 25.6165 13.044C25.6165 6.06185 19.9564 0.401733 12.9743 0.401733C5.99215 0.401733 0.332031 6.06185 0.332031 13.044C0.332031 20.0261 5.99215 25.6862 12.9743 25.6862Z" fill="#090909"/>
<path d="M30.852 43.5639C37.8341 43.5639 43.4942 37.9038 43.4942 30.9217C43.4942 23.9395 37.8341 18.2794 30.852 18.2794C23.8698 18.2794 18.2097 23.9395 18.2097 30.9217C18.2097 37.9038 23.8698 43.5639 30.852 43.5639Z" fill="#090909"/>
<path d="M4.03452 39.8594C8.97117 44.7961 16.9755 44.7961 21.9121 39.8594L4.03452 21.9818C-0.902132 26.9185 -0.902132 34.9228 4.03452 39.8594Z" fill="#090909"/>
<path d="M39.7897 4.10422C34.8531 -0.83243 26.8488 -0.83243 21.9121 4.10422L39.7897 21.9818C44.7264 17.0452 44.7264 9.04087 39.7897 4.10422Z" fill="#090909"/>
</svg>
