<svg viewBox="0 0 87 52" fill="none" xmlns="http://www.w3.org/2000/svg"><path d="M53.9 23.146h26.557V1.202H87v49.611h-6.543V28.72H53.9v22.094h-6.528V1.202H53.9v21.944ZM20.22 0C30.88 0 37.9 4.927 38.241 15.426v.03h-6.528c-.759-6.955-4.55-9.868-11.495-9.868-3.241 0-5.918.69-8.193 2.012-2.275 1.322-3.375 3.47-3.375 6.459 0 12.857 31.435 3.064 31.435 23.146 0 3.335-1.026 6.173-3.093 8.471C32.948 50.334 27.089 52 20.695 52c-5.978 0-10.87-1.397-14.721-4.176C2.123 44.971.19 40.734.19 35.102h6.542c0 3.89 1.309 6.744 3.926 8.622 2.602 1.802 5.978 2.704 10.037 2.704 3.51 0 6.543-.691 9.086-2.088 2.542-1.397 3.777-3.695 3.777-6.955 0-15.08-31.435-4.656-31.435-22.86 0-4.657 1.784-8.262 5.293-10.77C11 1.247 15.268 0 20.22 0Z" fill="black"/></svg>