<svg viewBox="0 0 133 54" fill="none" xmlns="http://www.w3.org/2000/svg">
<path d="M0.00695912 4.87453C0.00708585 2.66548 1.79791 0.874751 4.00696 0.874753L55.9618 0.874739C59.6654 0.874738 61.38 5.47404 58.5803 7.89853L6.62293 52.8924C4.03225 55.1359 0.00420707 53.2955 0.00440139 49.8684L0.00695912 4.87453Z" fill="url(#paint0_linear_98_2)" fill-opacity="0.3"/>
<path d="M73.007 4.87453C73.0071 2.66548 74.7979 0.874751 77.007 0.874753L128.962 0.874739C132.665 0.874738 134.38 5.47404 131.58 7.89853L79.6229 52.8924C77.0322 55.1359 73.0042 53.2955 73.0044 49.8684L73.007 4.87453Z" fill="url(#paint1_linear_98_2)" fill-opacity="0.3"/>
<defs>
<linearGradient id="paint0_linear_98_2" x1="4.84766" y1="59.6245" x2="80.8477" y2="-1.37549" gradientUnits="userSpaceOnUse">
<stop stop-color="white"/>
<stop offset="1" stop-color="white" stop-opacity="0"/>
</linearGradient>
<linearGradient id="paint1_linear_98_2" x1="77.8477" y1="59.6245" x2="153.848" y2="-1.37549" gradientUnits="userSpaceOnUse">
<stop stop-color="white"/>
<stop offset="1" stop-color="white" stop-opacity="0"/>
</linearGradient>
</defs>
</svg>
