
<svg viewBox="0 0 19 16" fill="none" xmlns="http://www.w3.org/2000/svg">
<path fill-rule="evenodd" clip-rule="evenodd" d="M0 14.1845C1.69471 15.3311 3.70793 16 5.87027 16C12.9805 16 16.9977 9.66602 16.7566 3.98447C17.504 3.41553 18.1539 2.70388 18.6667 1.8932C17.9799 2.21456 17.2417 2.43204 16.4675 2.52913C17.2582 2.0301 17.8649 1.23883 18.1512 0.294175C17.4111 0.757282 16.5909 1.09417 15.72 1.27476C15.0204 0.490291 14.0253 0 12.9234 0C10.4518 0 8.63465 2.43204 9.19341 4.95922C6.01019 4.79126 3.18782 3.18252 1.2998 0.738835C0.296413 2.55437 0.778775 4.9301 2.48453 6.13204C1.85673 6.11068 1.26574 5.92816 0.749318 5.62621C0.707894 7.49806 1.97916 9.24757 3.82115 9.63786C3.28172 9.7932 2.69165 9.82815 2.09238 9.7068C2.57843 11.3126 3.99329 12.4796 5.66959 12.5126C4.05957 13.8437 2.03163 14.4379 0 14.1845Z" fill="#090617"/>
</svg>
